<svg width="64" height="64" viewBox="0 0 64 64" fill="none" xmlns="http://www.w3.org/2000/svg">
<path d="M58.5 33.5C58.5 49 43.8594 54.5 29.5 54.5C15.1406 54.5 5 44.2548 5 31C5 17.7452 16.6406 7 31 7C45.3594 7 58.5 20.2452 58.5 33.5Z" fill="white"/>
<path fill-rule="evenodd" clip-rule="evenodd" d="M25.5982 7.85712C25.5982 7.06496 26.2404 6.42279 27.0325 6.42279C27.7684 6.42279 28.4833 6.44901 29.1686 6.47415L29.18 6.47457C29.8767 6.50012 30.5433 6.52442 31.2219 6.52442C32.6622 6.52442 34.0959 6.60887 35.4719 6.68992C35.7027 6.70352 35.9319 6.71702 36.1592 6.73001C36.7705 6.76494 37.325 6.92243 37.7804 7.0777C38.0051 7.15434 38.2244 7.23723 38.4179 7.31035L38.4282 7.31425C38.632 7.39127 38.8074 7.45742 38.9777 7.51526C39.1358 7.56895 39.2821 7.63197 39.3887 7.67895C39.4299 7.69711 39.4649 7.71268 39.4962 7.72664C39.5602 7.75512 39.609 7.77688 39.6652 7.80019C39.7319 7.82781 39.7715 7.84091 39.7897 7.84657C40.557 7.87482 41.1703 8.50574 41.1703 9.27991C41.1703 10.0721 40.5282 10.7142 39.736 10.7142C39.2344 10.7142 38.8057 10.5492 38.5669 10.4503C38.3923 10.3779 38.3007 10.3357 38.2355 10.3057C38.1681 10.2746 38.1288 10.2565 38.0552 10.2315C37.8343 10.1565 37.6163 10.0741 37.4229 10.001L37.414 9.99764C37.2105 9.92072 37.0314 9.85315 36.8545 9.79284C36.4986 9.67148 36.2281 9.60728 35.9956 9.59399C35.759 9.58047 35.5239 9.56665 35.2899 9.5529C33.9102 9.4718 32.5707 9.39307 31.2219 9.39307C30.4866 9.39307 29.772 9.36686 29.0868 9.34173L29.0749 9.34129C28.3783 9.31574 27.7114 9.29144 27.0325 9.29144C26.2404 9.29144 25.5982 8.64927 25.5982 7.85712Z" fill="black"/>
<path fill-rule="evenodd" clip-rule="evenodd" d="M21.9344 7.47609C25.3839 6.29273 29.522 6 33.5 6C34.2922 6 41 7.69877 41 8.49092C41 9.28308 37.7256 8.15299 33.1302 7.86865C29.6402 7.86865 26.277 9.02084 22.695 10.248C22.6133 10.2759 22.5316 10.304 22.4497 10.332C22.0282 10.4763 21.6209 10.6099 21.2252 10.7397C19.9824 11.1473 18.854 11.5174 17.7596 12.0646C16.3762 12.7564 15.0426 13.67 13.8017 14.6823C11.2751 16.7434 9.7873 19.2349 8.73549 22.4267C6.75882 28.4248 5.83162 34.3994 8.61381 39.7877C9.71732 41.9249 10.9051 43.8488 12.4491 45.5682C14.2823 47.6097 16.6585 49.0503 19.2507 50.5106C24.6665 53.5618 31.2647 52.8423 37.7256 51.7573C44.3139 50.6509 50.9625 48.7123 54.5895 43.4486C55.3789 42.303 55.8987 40.936 56.2929 39.4556C57.0089 36.7672 57.2892 33.8304 56.9081 31.139C56.4781 28.1022 55.097 25.2576 53.5441 22.3345C52.1141 19.6427 50.4857 17.3008 48.2207 15.4789C45.9699 13.6686 43.4346 12.3931 40.6482 11.3317C39.9079 11.0497 36.8976 9.0675 37.1796 8.32724C37.4616 7.58698 40.9292 8.36893 41.6694 8.65094C44.625 9.77687 47.4562 11.1826 50.0186 13.2436C52.7051 15.4045 54.5535 18.1199 56.0775 20.9886C57.6287 23.9087 59.2405 27.1501 59.7484 30.7368C60.1936 33.8812 59.8593 37.2112 59.065 40.1938C58.6289 41.8312 58.0032 43.5503 56.9517 45.0763C52.5859 51.412 44.8023 53.4777 38.2007 54.5863C31.8282 55.6565 24.2495 56.6195 17.8426 53.01C15.2555 51.5524 12.4964 49.9144 10.3147 47.4848C8.5466 45.5158 7.22898 43.3583 6.06489 41.1038C2.72851 34.6422 3.97774 27.6986 6.01096 21.5288C7.19054 17.9494 8.94188 14.9447 11.9883 12.4594C13.3468 11.3512 14.8578 10.3083 16.4767 9.49883C17.7788 8.84781 19.1803 8.3891 20.4628 7.96933C20.8266 7.85026 21.1808 7.73433 21.5204 7.61804C21.6579 7.57096 21.7959 7.52361 21.9344 7.47609Z" fill="black"/>
<path fill-rule="evenodd" clip-rule="evenodd" d="M22.7328 32.0054C23.301 32.0675 22.796 32.6431 22.7329 33.2023C22.6553 33.8892 22.1438 34.3666 21.8719 34.5961C21.6184 34.8102 21.3182 35.0088 21.1405 35.1264C21.0997 35.1534 21.0653 35.1761 21.0395 35.1937C20.5646 35.5183 20.0311 35.7877 19.5738 36.0186C19.4298 36.0913 19.2934 36.1602 19.1688 36.2258C18.8849 36.3752 18.5857 36.4952 18.3443 36.5921C18.3176 36.6028 18.2916 36.6132 18.2664 36.6234C17.9906 36.7345 17.144 36.923 16.5567 36.9771C15.4915 37.0752 15.4684 36.8393 15.1133 36.622C14.8192 36.1396 15.1357 35.5736 15.6259 35.2841C15.9481 35.0939 16.286 34.9555 16.5567 34.8464C16.5801 34.837 16.603 34.8277 16.6255 34.8187C16.8848 34.7143 18.0088 34.5258 18.1927 34.429C18.3852 34.3277 18.5634 34.2376 18.7312 34.1528C19.1514 33.9404 19.5064 33.761 19.8587 33.5202C19.9228 33.4764 19.9849 33.4351 20.0453 33.395C20.2157 33.2817 20.3727 33.1774 20.524 33.0497C20.6091 32.9778 20.6612 32.9231 20.6895 32.8875C20.7942 32.3757 22.1956 31.9466 22.7328 32.0054Z" fill="black"/>
<path fill-rule="evenodd" clip-rule="evenodd" d="M39.0801 32C39.6798 32 40.6655 32.3021 41.3227 32.6448C42.1695 33.4475 43.1663 33.4871 44.3411 33.8955C44.835 34.0671 46.1505 34.9638 45.9858 35.4788C45.8212 35.9938 45.0001 36.1641 44.0143 35.8215C42.703 35.3657 41.1157 34.6601 40.0029 33.6052C39.6177 33.24 38.73 32.4017 39.0801 32Z" fill="black"/>
<path fill-rule="evenodd" clip-rule="evenodd" d="M29.7707 47.805C29.284 47.8536 28.7204 47.91 28.1505 47.91C27.3583 47.91 27 47.7922 27 47C27 46.2078 27.3583 45.0413 28.1505 45.0413C28.5672 45.0413 29.0006 44.999 29.5232 44.9468L29.5441 44.9447C30.0371 44.8955 30.9123 44.9447 31.5 44.9447C32.3129 44.9447 32.8049 44.9213 33.5128 44.9956L33.5394 44.9983C34.2788 45.0759 34.9284 45.143 35.5693 45.143C36.3614 45.143 37 46.2078 37 47C37 47.7922 36.3614 48.0116 35.5693 48.0116C34.767 48.0116 33.9808 47.9291 33.2766 47.8552L33.24 47.8513C32.5018 47.7739 32.1484 47.5 31.5 47.5C31.0702 47.5 30.3282 47.7493 29.8082 47.8013C29.7958 47.8025 29.7833 47.8037 29.7707 47.805Z" fill="black"/>
<path fill-rule="evenodd" clip-rule="evenodd" d="M19.8375 26.1661C20.1289 26.2458 20.3798 26.4137 20.5636 26.6365C20.8341 26.6725 21.1539 26.7512 21.4695 26.9248C22.5862 27.539 22.8797 28.7202 22.6289 29.658C22.3903 30.5502 21.6135 31.4116 20.4452 31.5132C19.7173 31.5765 18.8418 31.394 18.1556 30.9414C17.7976 30.7053 17.4153 30.344 17.189 29.822C16.9493 29.269 16.9415 28.6634 17.1435 28.0861C17.2844 27.6835 17.4277 27.2755 17.7037 26.7925C17.8226 26.5844 17.9962 26.3892 18.2286 26.2425C18.4569 26.0983 18.6888 26.0344 18.8835 26.0112C19.2345 25.9695 19.5197 26.0548 19.627 26.0888C19.7065 26.1141 19.79 26.1468 19.8375 26.1661Z" fill="black"/>
<path fill-rule="evenodd" clip-rule="evenodd" d="M42.5633 25.5456C42.5571 25.5436 42.5489 25.5407 42.5383 25.537C42.536 25.5362 42.5314 25.5344 42.5246 25.5319C42.4733 25.5128 42.3022 25.449 42.1546 25.4103C41.949 25.3563 41.6461 25.3045 41.2888 25.3631C40.9224 25.4233 40.6056 25.5817 40.3403 25.7901C39.6783 26.3103 39.1371 27.1486 38.8961 28.008C38.6567 28.8618 38.625 30.155 39.6638 31.0783C40.2899 31.6349 41.1425 31.8774 41.941 31.7482C42.7967 31.6098 43.6278 31.0224 43.9097 29.9797C44.0113 29.6034 44.1157 28.9654 44 28.3367C43.956 28.0977 43.8673 27.7898 43.6787 27.4901C43.722 27.3804 43.7523 27.2635 43.7676 27.141C43.8641 26.3687 43.3276 25.6632 42.5633 25.5456Z" fill="black"/>
<path d="M23.5 8.5C28 7 31.2396 7.49587 31.5 7.5M32.5 7.49999C37 8.20287 41.1652 9.8884 41.5 9.99999" stroke="black" stroke-width="3" stroke-linecap="round"/>
</svg>
